<svg width="130" height="130" viewBox="0 0 130 130" fill="none" xmlns="http://www.w3.org/2000/svg">
<g id="location" clip-path="url(#clip0_1_64)">
<path id="Vector" d="M0 20C0 8.9543 8.95431 0 20 0H110C121.046 0 130 8.95431 130 20V110C130 121.046 121.046 130 110 130H20C8.9543 130 0 121.046 0 110V20Z" fill="#2453FB"/>
<path id="Vector_2" d="M64.5 20C47.085 20 33 34.085 33 51.5C33 75.125 64.5 110 64.5 110C64.5 110 96 75.125 96 51.5C96 34.085 81.915 20 64.5 20ZM64.5 62.75C58.29 62.75 53.25 57.71 53.25 51.5C53.25 45.29 58.29 40.25 64.5 40.25C70.71 40.25 75.75 45.29 75.75 51.5C75.75 57.71 70.71 62.75 64.5 62.75Z" fill="white"/>
</g>
<defs>
<clipPath id="clip0_1_64">
<rect width="130" height="130" fill="white"/>
</clipPath>
</defs>
</svg>
