<svg width="130" height="130" viewBox="0 0 130 130" fill="none" xmlns="http://www.w3.org/2000/svg">
<g id="Security" clip-path="url(#clip0_1_72)">
<path id="Vector" d="M0 20C0 8.9543 8.95431 0 20 0H110C121.046 0 130 8.95431 130 20V110C130 121.046 121.046 130 110 130H20C8.9543 130 0 121.046 0 110V20Z" fill="#2453FB"/>
<path id="Vector_2" d="M64.8182 20L28 36.3636V60.9091C28 83.6136 43.7091 104.845 64.8182 110C85.9273 104.845 101.636 83.6136 101.636 60.9091V36.3636L64.8182 20ZM64.8182 64.9591H93.4546C91.2864 81.8136 80.0364 96.8273 64.8182 101.532V65H36.1818V41.6818L64.8182 28.9591V64.9591Z" fill="white"/>
</g>
<defs>
<clipPath id="clip0_1_72">
<rect width="130" height="130" fill="white"/>
</clipPath>
</defs>
</svg>
